<?xml version="1.0" standalone="no"?><svg xmlns="http://www.w3.org/2000/svg" viewBox="0 0 1440 320"><path fill="#ffff" fill-opacity="1" d="M0,0L16,53.3C32,107,64,213,96,218.7C128,224,160,128,192,85.3C224,43,256,53,288,80C320,107,352,149,384,154.7C416,160,448,128,480,138.7C512,149,544,203,576,234.7C608,267,640,277,672,277.3C704,277,736,267,768,261.3C800,256,832,256,864,224C896,192,928,128,960,138.7C992,149,1024,235,1056,266.7C1088,299,1120,277,1152,240C1184,203,1216,149,1248,122.7C1280,96,1312,96,1344,128C1376,160,1408,224,1424,256L1440,288L1440,320L1424,320C1408,320,1376,320,1344,320C1312,320,1280,320,1248,320C1216,320,1184,320,1152,320C1120,320,1088,320,1056,320C1024,320,992,320,960,320C928,320,896,320,864,320C832,320,800,320,768,320C736,320,704,320,672,320C640,320,608,320,576,320C544,320,512,320,480,320C448,320,416,320,384,320C352,320,320,320,288,320C256,320,224,320,192,320C160,320,128,320,96,320C64,320,32,320,16,320L0,320Z"></path></svg>